<?xml version="1.0" encoding="UTF-8" standalone="no"?>
<!-- Created with Inkscape (http://www.inkscape.org/) -->

<svg
   xmlns:osb="http://www.openswatchbook.org/uri/2009/osb"
   xmlns:dc="http://purl.org/dc/elements/1.1/"
   xmlns:cc="http://creativecommons.org/ns#"
   xmlns:rdf="http://www.w3.org/1999/02/22-rdf-syntax-ns#"
   xmlns:svg="http://www.w3.org/2000/svg"
   xmlns="http://www.w3.org/2000/svg"
   xmlns:sodipodi="http://sodipodi.sourceforge.net/DTD/sodipodi-0.dtd"
   xmlns:inkscape="http://www.inkscape.org/namespaces/inkscape"
   width="48"
   height="48"
   id="svg2"
   version="1.1"
   inkscape:version="0.48.4 r9939"
   sodipodi:docname="shutdown.svg">
  <defs
     id="defs4">
    <linearGradient
       id="linearGradient5233">
      <stop
         style="stop-color:#000000;stop-opacity:1;"
         offset="0"
         id="stop5235" />
      <stop
         style="stop-color:#000000;stop-opacity:0;"
         offset="1"
         id="stop5237" />
    </linearGradient>
    <linearGradient
       id="linearGradient3793"
       osb:paint="solid">
      <stop
         style="stop-color:#000000;stop-opacity:1;"
         offset="0"
         id="stop3795" />
    </linearGradient>
    <linearGradient
       id="linearGradient2989">
      <stop
         style="stop-color:#000000;stop-opacity:0;"
         offset="0"
         id="stop2991" />
      <stop
         style="stop-color:#ffff00;stop-opacity:0;"
         offset="1"
         id="stop2993" />
    </linearGradient>
  </defs>
  <sodipodi:namedview
     id="base"
     pagecolor="#ffffff"
     bordercolor="#666666"
     borderopacity="1.0"
     inkscape:pageopacity="0.0"
     inkscape:pageshadow="2"
     inkscape:zoom="7.9195959"
     inkscape:cx="-2.8462562"
     inkscape:cy="21.478153"
     inkscape:document-units="px"
     inkscape:current-layer="layer1"
     showgrid="false"
     inkscape:object-nodes="false"
     inkscape:window-width="1366"
     inkscape:window-height="706"
     inkscape:window-x="0"
     inkscape:window-y="27"
     inkscape:window-maximized="1" />
  <metadata
     id="metadata7">
    <rdf:RDF>
      <cc:Work
         rdf:about="">
        <dc:format>image/svg+xml</dc:format>
        <dc:type
           rdf:resource="http://purl.org/dc/dcmitype/StillImage" />
        <dc:title></dc:title>
      </cc:Work>
    </rdf:RDF>
  </metadata>
  <g
     inkscape:label="Capa 1"
     inkscape:groupmode="layer"
     id="layer1"
     transform="translate(0,-1004.3622)">
    <path
       style="fill:#ffffff;fill-opacity:1;stroke:none"
       inkscape:transform-center-x="-4.4680023"
       inkscape:transform-center-y="5.3728849"
       d="m 12.821478,1010.3709 c -1.868911,0.1955 -3.6064875,1.2439 -4.9699158,2.7053 -1.6062384,1.6794 -3.3137361,3.2886 -4.5087589,5.4064 -1.1493282,1.8701 -2.0301709,3.9412 -2.82205798,6.0382 -0.54335551,1.8135 -0.58634213,3.7275 -0.46450342,5.6234 0.26843485,1.8906 0.2624472,3.8429 0.92386688,5.6375 0.83531802,1.9695 1.35302102,4.1118 2.39521992,5.9612 0.8802024,1.4719 1.950654,2.7973 2.9641152,4.1522 1.2320054,1.4801 2.92848,2.4091 4.6320981,2.919 1.539127,0.4553 4.001361,0.8394 4.547415,-1.4501 0.159083,-1.5695 -0.881958,-2.9337 -1.972315,-3.7028 -1.415107,-0.8142 -2.418695,-2.2688 -3.461058,-3.6013 -0.9664351,-1.4197 -1.9540951,-2.8273 -2.8790432,-4.2792 -0.7579702,-1.5551 -0.6589093,-3.4193 -1.2244744,-5.0693 -0.5462611,-1.7311 0.2171805,-3.4836 0.5537825,-5.1618 0.5180999,-1.9249 1.1837433,-3.9031 2.5264092,-5.2687 1.3767359,-1.4187 2.6301429,-2.9876 3.9773109,-4.443 1.105952,-1.0499 2.025276,-2.6328 1.466242,-4.3468 -0.279523,-0.7238 -0.970355,-1.3737 -1.684333,-1.1202 z"
       id="rect5345"
       inkscape:connector-curvature="0" />
    <path
       sodipodi:type="star"
       style="fill:#ffffff;fill-opacity:1;stroke:none"
       id="path5347"
       sodipodi:sides="3"
       sodipodi:cx="-78.39286"
       sodipodi:cy="-10.571429"
       sodipodi:r1="5.5472231"
       sodipodi:r2="3.0691614"
       sodipodi:arg1="-1.5063695"
       sodipodi:arg2="-0.5544997"
       inkscape:flatsided="false"
       inkscape:rounded="0.35"
       inkscape:randomized="0"
       d="m -78.035718,-16.107144 c 1.581484,-0.04889 1.550894,2.501393 2.252148,3.919746 0.79173,1.601349 2.851165,3.1192077 2.006207,4.6931206 -0.748399,1.3940514 -2.941717,0.092417 -4.520673,-0.00946 -1.782674,-0.1150165 -4.126895,0.9095776 -5.067465,-0.6091338 -0.833085,-1.3451582 1.390823,-2.5938102 2.268525,-3.9102902 0.990945,-1.486332 1.275731,-4.028785 3.061258,-4.083987 z"
       transform="matrix(1.0504848,1.4446551,-1.25065,1.2134396,83.016262,1137.7065)"
       inkscape:transform-center-x="-11.219769"
       inkscape:transform-center-y="-2.1561412" />
    <path
       id="path5364"
       d="m 35.178522,1046.3538 c 1.868911,-0.1955 3.606488,-1.2439 4.969916,-2.7053 1.606238,-1.6793 3.313736,-3.2887 4.508759,-5.4064 1.149328,-1.8701 2.030171,-3.9412 2.822058,-6.0382 0.543355,-1.8135 0.586342,-3.7275 0.464503,-5.6234 -0.268435,-1.8906 -0.262447,-3.8429 -0.923867,-5.6375 -0.835318,-1.9695 -1.353021,-4.1118 -2.39522,-5.9613 -0.880202,-1.4718 -1.950654,-2.7971 -2.964115,-4.1522 -1.232005,-1.48 -2.92848,-2.409 -4.632098,-2.9189 -1.539127,-0.4553 -4.001361,-0.8395 -4.547414,1.4501 -0.159083,1.5695 0.881958,2.9336 1.972314,3.7029 1.415108,0.814 2.418696,2.2686 3.461058,3.6012 0.966435,1.4197 1.954095,2.8274 2.879043,4.2791 0.75797,1.5552 0.65891,3.4194 1.224475,5.0694 0.546261,1.7311 -0.217181,3.4836 -0.553783,5.1618 -0.5181,1.9249 -1.183743,3.9031 -2.526409,5.2686 -1.376736,1.4188 -2.630143,2.9878 -3.97731,4.4431 -1.105953,1.0499 -2.025276,2.6328 -1.466243,4.3469 0.279524,0.7237 0.970356,1.3736 1.684333,1.1201 z"
       inkscape:transform-center-y="-0.77959894"
       inkscape:transform-center-x="-10.251643"
       style="fill:#ffffff;fill-opacity:1;stroke:none"
       inkscape:connector-curvature="0" />
    <path
       inkscape:transform-center-y="15.735001"
       inkscape:transform-center-x="-4.4540386"
       transform="matrix(-1.0504848,-1.4446551,1.25065,-1.2134396,-35.016259,919.01787)"
       d="m -78.035718,-16.107144 c 1.581484,-0.04889 1.550894,2.501393 2.252148,3.919746 0.79173,1.601349 2.851165,3.1192077 2.006207,4.6931206 -0.748399,1.3940514 -2.941717,0.092417 -4.520673,-0.00946 -1.782674,-0.1150165 -4.126895,0.9095776 -5.067465,-0.6091338 -0.833085,-1.3451582 1.390823,-2.5938102 2.268525,-3.9102902 0.990945,-1.486332 1.275731,-4.028785 3.061258,-4.083987 z"
       inkscape:randomized="0"
       inkscape:rounded="0.35"
       inkscape:flatsided="false"
       sodipodi:arg2="-0.5544997"
       sodipodi:arg1="-1.5063695"
       sodipodi:r2="3.0691614"
       sodipodi:r1="5.5472231"
       sodipodi:cy="-10.571429"
       sodipodi:cx="-78.39286"
       sodipodi:sides="3"
       id="path5366"
       style="fill:#ffffff;fill-opacity:1;stroke:none"
       sodipodi:type="star" />
  </g>
</svg>
