<?xml version="1.0" encoding="UTF-8" standalone="no"?>
<!-- Created with Inkscape (http://www.inkscape.org/) -->

<svg
   xmlns:osb="http://www.openswatchbook.org/uri/2009/osb"
   xmlns:dc="http://purl.org/dc/elements/1.1/"
   xmlns:cc="http://creativecommons.org/ns#"
   xmlns:rdf="http://www.w3.org/1999/02/22-rdf-syntax-ns#"
   xmlns:svg="http://www.w3.org/2000/svg"
   xmlns="http://www.w3.org/2000/svg"
   xmlns:sodipodi="http://sodipodi.sourceforge.net/DTD/sodipodi-0.dtd"
   xmlns:inkscape="http://www.inkscape.org/namespaces/inkscape"
   width="48"
   height="48"
   id="svg2"
   version="1.1"
   inkscape:version="0.48.4 r9939"
   sodipodi:docname="shutdown.svg">
  <defs
     id="defs4">
    <linearGradient
       id="linearGradient5233">
      <stop
         style="stop-color:#000000;stop-opacity:1;"
         offset="0"
         id="stop5235" />
      <stop
         style="stop-color:#000000;stop-opacity:0;"
         offset="1"
         id="stop5237" />
    </linearGradient>
    <linearGradient
       id="linearGradient3793"
       osb:paint="solid">
      <stop
         style="stop-color:#000000;stop-opacity:1;"
         offset="0"
         id="stop3795" />
    </linearGradient>
    <linearGradient
       id="linearGradient2989">
      <stop
         style="stop-color:#000000;stop-opacity:0;"
         offset="0"
         id="stop2991" />
      <stop
         style="stop-color:#ffff00;stop-opacity:0;"
         offset="1"
         id="stop2993" />
    </linearGradient>
  </defs>
  <sodipodi:namedview
     id="base"
     pagecolor="#ffffff"
     bordercolor="#666666"
     borderopacity="1.0"
     inkscape:pageopacity="0.0"
     inkscape:pageshadow="2"
     inkscape:zoom="7.919596"
     inkscape:cx="-12.203547"
     inkscape:cy="19.923468"
     inkscape:document-units="px"
     inkscape:current-layer="layer1"
     showgrid="false"
     inkscape:object-nodes="false"
     inkscape:window-width="1366"
     inkscape:window-height="706"
     inkscape:window-x="0"
     inkscape:window-y="27"
     inkscape:window-maximized="1" />
  <metadata
     id="metadata7">
    <rdf:RDF>
      <cc:Work
         rdf:about="">
        <dc:format>image/svg+xml</dc:format>
        <dc:type
           rdf:resource="http://purl.org/dc/dcmitype/StillImage" />
        <dc:title></dc:title>
      </cc:Work>
    </rdf:RDF>
  </metadata>
  <g
     inkscape:label="Capa 1"
     inkscape:groupmode="layer"
     id="layer1"
     transform="translate(0,-1004.3622)">
    <path
       style="fill:#ffffff;fill-opacity:1;stroke:none"
       d="m 45.319042,1052.1675 c -0.875215,0.2741 -2.063583,0.2574 -2.953945,-0.042 l -0.80677,-0.2708 -11.775085,-12.1142 -11.775085,-12.1141 -1.317757,0.3743 c -6.901133,1.9611 -14.3166388,-1.8265 -16.20601679,-8.2773 -0.42126775,-1.4384 -0.59765642,-3.4825 -0.40910671,-4.7415 0.15480246,-1.0337 0.80525185,-3.2623 1.0008086,-3.4286 0.055902,-0.047 1.5812645,1.4444 3.3895581,3.3155 4.579382,4.7383 4.3496692,4.6995 8.2617608,1.3925 2.666598,-2.2542 2.915264,-2.5778 2.833581,-3.6927 -0.04059,-0.5539 -0.180855,-0.7211 -3.418385,-4.072 -3.8306296,-3.9647 -3.6638471,-3.5593 -1.619458,-3.9365 2.536121,-0.4681 5.674806,-0.09 8.011163,0.9659 6.154845,2.7807 8.940302,9.5605 6.344411,15.4425 l -0.598188,1.3556 11.533873,11.9444 c 8.389091,8.6879 11.62065,12.1154 11.852144,12.5708 0.42516,0.8366 0.447037,2.3268 0.04677,3.1893 -0.381449,0.8219 -1.565003,1.8791 -2.393949,2.139 z"
       id="path3875"
       inkscape:connector-curvature="0" />
  </g>
</svg>
