<?xml version="1.0" encoding="UTF-8" standalone="no"?>
<!-- Created with Inkscape (http://www.inkscape.org/) -->

<svg
   xmlns:osb="http://www.openswatchbook.org/uri/2009/osb"
   xmlns:dc="http://purl.org/dc/elements/1.1/"
   xmlns:cc="http://creativecommons.org/ns#"
   xmlns:rdf="http://www.w3.org/1999/02/22-rdf-syntax-ns#"
   xmlns:svg="http://www.w3.org/2000/svg"
   xmlns="http://www.w3.org/2000/svg"
   xmlns:sodipodi="http://sodipodi.sourceforge.net/DTD/sodipodi-0.dtd"
   xmlns:inkscape="http://www.inkscape.org/namespaces/inkscape"
   width="48"
   height="48"
   id="svg2"
   version="1.1"
   inkscape:version="0.48.4 r9939"
   sodipodi:docname="shutdown.svg">
  <defs
     id="defs4">
    <linearGradient
       id="linearGradient5233">
      <stop
         style="stop-color:#000000;stop-opacity:1;"
         offset="0"
         id="stop5235" />
      <stop
         style="stop-color:#000000;stop-opacity:0;"
         offset="1"
         id="stop5237" />
    </linearGradient>
    <linearGradient
       id="linearGradient3793"
       osb:paint="solid">
      <stop
         style="stop-color:#000000;stop-opacity:1;"
         offset="0"
         id="stop3795" />
    </linearGradient>
    <linearGradient
       id="linearGradient2989">
      <stop
         style="stop-color:#000000;stop-opacity:0;"
         offset="0"
         id="stop2991" />
      <stop
         style="stop-color:#ffff00;stop-opacity:0;"
         offset="1"
         id="stop2993" />
    </linearGradient>
  </defs>
  <sodipodi:namedview
     id="base"
     pagecolor="#ffffff"
     bordercolor="#666666"
     borderopacity="1.0"
     inkscape:pageopacity="0.0"
     inkscape:pageshadow="2"
     inkscape:zoom="3.959798"
     inkscape:cx="32.888594"
     inkscape:cy="14.784098"
     inkscape:document-units="px"
     inkscape:current-layer="layer1"
     showgrid="false"
     inkscape:object-nodes="false"
     inkscape:window-width="1366"
     inkscape:window-height="706"
     inkscape:window-x="0"
     inkscape:window-y="27"
     inkscape:window-maximized="1"
     inkscape:snap-bbox="true"
     showguides="true"
     inkscape:guide-bbox="true" />
  <metadata
     id="metadata7">
    <rdf:RDF>
      <cc:Work
         rdf:about="">
        <dc:format>image/svg+xml</dc:format>
        <dc:type
           rdf:resource="http://purl.org/dc/dcmitype/StillImage" />
        <dc:title />
      </cc:Work>
    </rdf:RDF>
  </metadata>
  <g
     inkscape:label="Capa 1"
     inkscape:groupmode="layer"
     id="layer1"
     transform="translate(0,-1004.3622)">
    <path
       style="fill:#ffffff;fill-opacity:1;stroke:#ffffff;stroke-width:0.80678833000000005;stroke-linecap:round;stroke-linejoin:round;stroke-miterlimit:4;stroke-opacity:1;stroke-dasharray:none;stroke-dashoffset:0"
       d="m 21.217589,1016.095 0,-10.8249 2.602307,0 2.602309,0 0,10.8249 0,10.8249 -2.602309,0 -2.602307,0 0,-10.8249 z"
       id="path4005"
       inkscape:connector-curvature="0" />
    <path
       style="fill:#ffffff;fill-opacity:1;stroke:#ffffff;stroke-width:0.67672025999999996;stroke-linecap:round;stroke-linejoin:round;stroke-miterlimit:4;stroke-opacity:1;stroke-dasharray:none;stroke-dashoffset:0"
       d="m 21.419664,1051.9592 c -8.333805,-1.1877 -14.7725434,-5.9306 -17.8066218,-13.1166 -1.5770663,-3.7351 -1.9522999,-8.6399 -0.9579976,-12.522 1.8586399,-7.257 7.5141774,-13.0658 14.8011634,-15.2024 l 0.631855,-0.1853 -0.01391,2.6974 -0.01391,2.6974 -1.76677,0.817 c -3.969296,1.8357 -7.1137599,5.5372 -8.3360271,9.8129 -0.5865805,2.0521 -0.6904854,5.4176 -0.2307798,7.4753 1.175736,5.2624 5.3128259,9.808 10.5234899,11.5622 7.954332,2.6779 16.483769,-0.6879 20.182739,-7.9646 4.085356,-8.0366 0.426745,-17.7783 -8.031129,-21.3844 l -1.055187,-0.45 0,-2.647 c 0,-1.4559 0.05504,-2.6471 0.122295,-2.6471 0.06726,0 0.920267,0.2972 1.895565,0.6602 5.357481,1.9951 9.717837,5.9245 12.10909,10.913 1.258305,2.625 1.74306,4.6017 1.88842,7.7006 0.241199,5.142 -1.087562,9.2919 -4.336329,13.5431 -2.819061,3.6889 -7.412784,6.6002 -12.163042,7.7083 -1.865526,0.4352 -6.032241,0.7331 -7.442911,0.532 l 0,0 z"
       id="path4007"
       inkscape:connector-curvature="0" />
  </g>
</svg>
