<?xml version="1.0" encoding="UTF-8" standalone="no"?>
<!-- Created with Inkscape (http://www.inkscape.org/) -->

<svg
   xmlns:dc="http://purl.org/dc/elements/1.1/"
   xmlns:cc="http://creativecommons.org/ns#"
   xmlns:rdf="http://www.w3.org/1999/02/22-rdf-syntax-ns#"
   xmlns:svg="http://www.w3.org/2000/svg"
   xmlns="http://www.w3.org/2000/svg"
   xmlns:sodipodi="http://sodipodi.sourceforge.net/DTD/sodipodi-0.dtd"
   xmlns:inkscape="http://www.inkscape.org/namespaces/inkscape"
   width="128"
   height="128"
   id="svg2"
   version="1.1"
   inkscape:version="0.48.4 r9939"
   sodipodi:docname="logo.svg">
  <defs
     id="defs4" />
  <sodipodi:namedview
     id="base"
     pagecolor="#ffffff"
     bordercolor="#666666"
     borderopacity="1.0"
     inkscape:pageopacity="0.0"
     inkscape:pageshadow="2"
     inkscape:zoom="2.8"
     inkscape:cx="24.071866"
     inkscape:cy="74.596003"
     inkscape:document-units="px"
     inkscape:current-layer="layer1"
     showgrid="false"
     inkscape:window-width="1366"
     inkscape:window-height="708"
     inkscape:window-x="0"
     inkscape:window-y="25"
     inkscape:window-maximized="1" />
  <metadata
     id="metadata7">
    <rdf:RDF>
      <cc:Work
         rdf:about="">
        <dc:format>image/svg+xml</dc:format>
        <dc:type
           rdf:resource="http://purl.org/dc/dcmitype/StillImage" />
        <dc:title />
      </cc:Work>
    </rdf:RDF>
  </metadata>
  <g
     inkscape:label="Capa 1"
     inkscape:groupmode="layer"
     id="layer1"
     transform="translate(0,-924.3622)">
    <path
       sodipodi:type="arc"
       style="fill:#008080;fill-opacity:1"
       id="path2991"
       sodipodi:cx="23.612316"
       sodipodi:cy="24.261415"
       sodipodi:rx="15.404826"
       sodipodi:ry="15.404826"
       d="m 39.017142,24.261415 c 0,8.507851 -6.896975,15.404827 -15.404826,15.404827 -8.50785,0 -15.404826,-6.896976 -15.404826,-15.404827 0,-8.50785 6.896976,-15.4048257 15.404826,-15.4048257 8.507851,0 15.404826,6.8969757 15.404826,15.4048257 z"
       transform="matrix(3.8624259,0,0,3.8624259,-26.700822,894.15428)" />
    <path
       transform="matrix(2.3322932,0,0,2.3322932,9.4291555,895.56318)"
       d="m 39.017142,24.261415 a 15.404826,15.404826 0 1 1 -30.809652,0 15.404826,15.404826 0 1 1 30.809652,0 z"
       sodipodi:ry="15.404826"
       sodipodi:rx="15.404826"
       sodipodi:cy="24.261415"
       sodipodi:cx="23.612316"
       id="path3853"
       style="fill:#ffffff;fill-opacity:1"
       sodipodi:type="arc" />
    <path
       sodipodi:type="arc"
       style="fill:#ffffff;fill-opacity:1"
       id="path3855"
       sodipodi:cx="23.612316"
       sodipodi:cy="24.261415"
       sodipodi:rx="15.404826"
       sodipodi:ry="15.404826"
       d="m 39.017142,24.261415 a 15.404826,15.404826 0 1 1 -30.809652,0 15.404826,15.404826 0 1 1 30.809652,0 z"
       transform="matrix(2.3322932,0,0,2.3322932,9.4291555,960.56318)" />
  </g>
</svg>
