<?xml version="1.0" encoding="UTF-8" standalone="no"?>
<!-- Created with Inkscape (http://www.inkscape.org/) -->

<svg
   xmlns:dc="http://purl.org/dc/elements/1.1/"
   xmlns:cc="http://creativecommons.org/ns#"
   xmlns:rdf="http://www.w3.org/1999/02/22-rdf-syntax-ns#"
   xmlns:svg="http://www.w3.org/2000/svg"
   xmlns="http://www.w3.org/2000/svg"
   xmlns:sodipodi="http://sodipodi.sourceforge.net/DTD/sodipodi-0.dtd"
   xmlns:inkscape="http://www.inkscape.org/namespaces/inkscape"
   width="128"
   height="128"
   id="svg2"
   version="1.1"
   inkscape:version="0.48.4 r9939"
   sodipodi:docname="logo.svg">
  <defs
     id="defs4" />
  <sodipodi:namedview
     id="base"
     pagecolor="#ffffff"
     bordercolor="#666666"
     borderopacity="1.0"
     inkscape:pageopacity="0.0"
     inkscape:pageshadow="2"
     inkscape:zoom="2.8"
     inkscape:cx="24.071866"
     inkscape:cy="49.049057"
     inkscape:document-units="px"
     inkscape:current-layer="layer1"
     showgrid="false"
     inkscape:window-width="1366"
     inkscape:window-height="708"
     inkscape:window-x="0"
     inkscape:window-y="25"
     inkscape:window-maximized="1" />
  <metadata
     id="metadata7">
    <rdf:RDF>
      <cc:Work
         rdf:about="">
        <dc:format>image/svg+xml</dc:format>
        <dc:type
           rdf:resource="http://purl.org/dc/dcmitype/StillImage" />
        <dc:title />
      </cc:Work>
    </rdf:RDF>
  </metadata>
  <g
     inkscape:label="Capa 1"
     inkscape:groupmode="layer"
     id="layer1"
     transform="translate(0,-924.3622)">
    <path
       style="fill:#008080;fill-opacity:1;fill-rule:nonzero"
       d="m 32.922143,1038.1748 c -9.82634,-6.0583 -17.86218,-15.192 -22.63741,-25.73 -3.7271301,-8.2251 -5.3025401,-15.50182 -5.3059501,-24.50788 -0.006,-15.90875 5.8956501,-30.3454 16.9859401,-41.55091 3.36755,-3.40254 7.91001,-7.22171 8.22031,-6.91141 0.0775,0.0775 -0.0823,0.78878 -0.3551,1.58061 -1.97335,5.72768 -2.153,15.05474 -0.40342,20.94443 2.67404,9.00174 8.03935,16.01948 16.030242,20.96729 l 2.777747,1.71992 -2.063461,1.162 c -9.005518,5.07131 -15.271448,13.91915 -17.441388,24.62825 -0.90032,4.4432 -0.57085,12.255 0.69686,16.5225 1.06167,3.574 3.22833,8.152 5.074,10.721 0.69481,0.9671 1.20096,1.8208 1.12479,1.8969 -0.0762,0.076 -1.2926,-0.573 -2.70316,-1.4427 l 0,0 z"
       id="path2993"
       inkscape:connector-curvature="0" />
    <path
       style="fill:#008080;fill-opacity:1;fill-rule:nonzero"
       d="m 92.989578,1038.9626 c 1.549572,-2.1608 3.61483,-5.8644 4.545596,-8.1515 3.641846,-8.9491 3.474106,-19.3483 -0.457276,-28.3489 -2.946951,-6.74682 -8.579613,-12.9683 -15.043919,-16.61653 l -2.059259,-1.16217 2.408626,-1.40752 c 6.764014,-3.95267 12.205428,-10.22477 15.151828,-17.46492 2.971986,-7.30302 3.435226,-16.02492 1.251527,-23.56422 -0.456262,-1.57527 -0.702333,-2.81802 -0.546826,-2.76167 0.155508,0.0563 1.585042,1.13052 3.176745,2.38704 8.32749,6.5739 15.14046,16.31698 18.88088,27.00113 3.58133,10.22973 4.01281,22.8356 1.16328,33.98546 -3.66917,14.3571 -13.5451,27.7139 -26.198776,35.433 -2.77695,1.694 -3.06771,1.7798 -2.272426,0.6708 l 0,0 z"
       id="path2995"
       inkscape:connector-curvature="0" />
  </g>
</svg>
